<svg xmlns="http://www.w3.org/2000/svg" xmlns:xlink="http://www.w3.org/1999/xlink" contentStyleType="text/css" data-diagram-type="ACTIVITY" height="1399.44" preserveAspectRatio="none" style="width:639px;height:828px;background:#FFFFFF;" version="1.1" viewBox="0 0 639 828" width="1080" zoomAndPan="magnify"><?plantuml 1.2026.3beta5?><defs/><g><ellipse cx="419.9221" cy="25" fill="#222222" rx="10" ry="10" style="stroke:#222222;stroke-width:1;"/><rect fill="#F1F1F1" height="33.9688" rx="12.5" ry="12.5" style="stroke:#181818;stroke-width:0.5;" width="162.043" x="338.9006" y="55"/><text fill="#000000" font-family="sans-serif" font-size="12" lengthAdjust="spacing" textLength="142.043" x="348.9006" y="76.1387">Load video dari storage</text><rect fill="#F1F1F1" height="33.9688" rx="12.5" ry="12.5" style="stroke:#181818;stroke-width:0.5;" width="108.6289" x="365.6076" y="108.9688"/><text fill="#000000" font-family="sans-serif" font-size="12" lengthAdjust="spacing" textLength="88.6289" x="375.6076" y="130.1074">Extract frames</text><rect fill="#F1F1F1" height="33.9688" rx="12.5" ry="12.5" style="stroke:#181818;stroke-width:0.5;" width="234.5938" x="302.6252" y="162.9375"/><text fill="#000000" font-family="sans-serif" font-size="12" lengthAdjust="spacing" textLength="214.5938" x="312.6252" y="184.0762">Deteksi manusia (people detection)</text><rect fill="#F1F1F1" height="33.9688" rx="12.5" ry="12.5" style="stroke:#181818;stroke-width:0.5;" width="191.2695" x="324.2873" y="216.9063"/><text fill="#000000" font-family="sans-serif" font-size="12" lengthAdjust="spacing" textLength="171.2695" x="334.2873" y="238.0449">Tracking individu (assign ID)</text><rect fill="#F1F1F1" height="33.9688" rx="12.5" ry="12.5" style="stroke:#181818;stroke-width:0.5;" width="104.5215" x="367.6613" y="270.875"/><text fill="#000000" font-family="sans-serif" font-size="12" lengthAdjust="spacing" textLength="84.5215" x="377.6613" y="292.0137">Deteksi wajah</text><polygon fill="#F1F1F1" points="370.2663,324.8438,469.5778,324.8438,481.5778,336.8438,469.5778,348.8438,370.2663,348.8438,358.2663,336.8438,370.2663,324.8438" style="stroke:#181818;stroke-width:0.5;"/><text fill="#000000" font-family="sans-serif" font-size="11" lengthAdjust="spacing" textLength="99.3115" x="370.2663" y="340.6519">Wajah terdeteksi?</text><text fill="#000000" font-family="sans-serif" font-size="11" lengthAdjust="spacing" textLength="13.46" x="344.8063" y="334.2495">Ya</text><text fill="#000000" font-family="sans-serif" font-size="11" lengthAdjust="spacing" textLength="29.8687" x="481.5778" y="334.2495">Tidak</text><rect fill="#F1F1F1" height="33.9688" rx="12.5" ry="12.5" style="stroke:#181818;stroke-width:0.5;" width="244.25" x="168.7714" y="358.8438"/><text fill="#000000" font-family="sans-serif" font-size="12" lengthAdjust="spacing" textLength="224.25" x="178.7714" y="379.9824">Analisis arah wajah (gaze/head pose)</text><polygon fill="#F1F1F1" points="240.1288,412.8125,341.6639,412.8125,353.6639,424.8125,341.6639,436.8125,240.1288,436.8125,228.1288,424.8125,240.1288,412.8125" style="stroke:#181818;stroke-width:0.5;"/><text fill="#000000" font-family="sans-serif" font-size="11" lengthAdjust="spacing" textLength="101.5352" x="240.1288" y="428.6206">Menghadap layar?</text><text fill="#000000" font-family="sans-serif" font-size="11" lengthAdjust="spacing" textLength="13.46" x="214.6688" y="422.2183">Ya</text><text fill="#000000" font-family="sans-serif" font-size="11" lengthAdjust="spacing" textLength="29.8687" x="353.6639" y="422.2183">Tidak</text><rect fill="#F1F1F1" height="33.9688" rx="12.5" ry="12.5" style="stroke:#181818;stroke-width:0.5;" width="126.1133" x="121.384" y="446.8125"/><text fill="#000000" font-family="sans-serif" font-size="12" lengthAdjust="spacing" textLength="106.1133" x="131.384" y="467.9512">Hitung dwell time</text><polygon fill="#F1F1F1" points="125.0391,500.7813,243.8423,500.7813,255.8423,512.7813,243.8423,524.7813,125.0391,524.7813,113.0391,512.7813,125.0391,500.7813" style="stroke:#181818;stroke-width:0.5;"/><text fill="#000000" font-family="sans-serif" font-size="11" lengthAdjust="spacing" textLength="118.8032" x="125.0391" y="516.5894">Durasi &gt;= threshold?</text><text fill="#000000" font-family="sans-serif" font-size="11" lengthAdjust="spacing" textLength="13.46" x="99.5791" y="510.187">Ya</text><text fill="#000000" font-family="sans-serif" font-size="11" lengthAdjust="spacing" textLength="29.8687" x="255.8423" y="510.187">Tidak</text><rect fill="#F1F1F1" height="33.9688" rx="12.5" ry="12.5" style="stroke:#181818;stroke-width:0.5;" width="174.0781" x="16" y="534.7813"/><text fill="#000000" font-family="sans-serif" font-size="12" lengthAdjust="spacing" textLength="154.0781" x="26" y="555.9199">Klasifikasi sebagai viewer</text><rect fill="#F1F1F1" height="33.9688" rx="12.5" ry="12.5" style="stroke:#181818;stroke-width:0.5;" width="101.5098" x="215.0874" y="534.7813"/><text fill="#000000" font-family="sans-serif" font-size="12" lengthAdjust="spacing" textLength="81.5098" x="225.0874" y="555.9199">Bukan viewer</text><polygon fill="#F1F1F1" points="184.4407,574.75,196.4407,586.75,184.4407,598.75,172.4407,586.75,184.4407,574.75" style="stroke:#181818;stroke-width:0.5;"/><rect fill="#F1F1F1" height="33.9688" rx="12.5" ry="12.5" style="stroke:#181818;stroke-width:0.5;" width="101.5098" x="346.5972" y="446.8125"/><text fill="#000000" font-family="sans-serif" font-size="12" lengthAdjust="spacing" textLength="81.5098" x="356.5972" y="467.9512">Bukan viewer</text><polygon fill="#F1F1F1" points="290.8964,604.75,302.8964,616.75,290.8964,628.75,278.8964,616.75,290.8964,604.75" style="stroke:#181818;stroke-width:0.5;"/><rect fill="#F1F1F1" height="33.9688" rx="12.5" ry="12.5" style="stroke:#181818;stroke-width:0.5;" width="141.6816" x="478.1069" y="358.8438"/><text fill="#000000" font-family="sans-serif" font-size="12" lengthAdjust="spacing" textLength="121.6816" x="488.1069" y="379.9824">Skip viewer analysis</text><polygon fill="#F1F1F1" points="419.9221,634.75,431.9221,646.75,419.9221,658.75,407.9221,646.75,419.9221,634.75" style="stroke:#181818;stroke-width:0.5;"/><rect fill="#F1F1F1" height="33.9688" rx="12.5" ry="12.5" style="stroke:#181818;stroke-width:0.5;" width="209.0293" x="315.4074" y="678.75"/><text fill="#000000" font-family="sans-serif" font-size="12" lengthAdjust="spacing" textLength="189.0293" x="325.4074" y="699.8887">Agregasi data (traffic &amp; viewer)</text><rect fill="#F1F1F1" height="33.9688" rx="12.5" ry="12.5" style="stroke:#181818;stroke-width:0.5;" width="142.8125" x="348.5158" y="732.7188"/><text fill="#000000" font-family="sans-serif" font-size="12" lengthAdjust="spacing" textLength="122.8125" x="358.5158" y="753.8574">Simpan ke database</text><ellipse cx="419.9221" cy="797.6875" fill="none" rx="11" ry="11" style="stroke:#222222;stroke-width:1;"/><ellipse cx="419.9221" cy="797.6875" fill="#222222" rx="6" ry="6" style="stroke:#222222;stroke-width:1;"/><line style="stroke:#181818;stroke-width:1;" x1="419.9221" x2="419.9221" y1="35" y2="55"/><polygon fill="#181818" points="415.9221,45,419.9221,55,423.9221,45,419.9221,49" style="stroke:#181818;stroke-width:1;"/><line style="stroke:#181818;stroke-width:1;" x1="419.9221" x2="419.9221" y1="88.9688" y2="108.9688"/><polygon fill="#181818" points="415.9221,98.9688,419.9221,108.9688,423.9221,98.9688,419.9221,102.9688" style="stroke:#181818;stroke-width:1;"/><line style="stroke:#181818;stroke-width:1;" x1="419.9221" x2="419.9221" y1="142.9375" y2="162.9375"/><polygon fill="#181818" points="415.9221,152.9375,419.9221,162.9375,423.9221,152.9375,419.9221,156.9375" style="stroke:#181818;stroke-width:1;"/><line style="stroke:#181818;stroke-width:1;" x1="419.9221" x2="419.9221" y1="196.9063" y2="216.9063"/><polygon fill="#181818" points="415.9221,206.9063,419.9221,216.9063,423.9221,206.9063,419.9221,210.9063" style="stroke:#181818;stroke-width:1;"/><line style="stroke:#181818;stroke-width:1;" x1="419.9221" x2="419.9221" y1="250.875" y2="270.875"/><polygon fill="#181818" points="415.9221,260.875,419.9221,270.875,423.9221,260.875,419.9221,264.875" style="stroke:#181818;stroke-width:1;"/><line style="stroke:#181818;stroke-width:1;" x1="113.0391" x2="103.0391" y1="512.7813" y2="512.7813"/><line style="stroke:#181818;stroke-width:1;" x1="103.0391" x2="103.0391" y1="512.7813" y2="534.7813"/><polygon fill="#181818" points="99.0391,524.7813,103.0391,534.7813,107.0391,524.7813,103.0391,528.7813" style="stroke:#181818;stroke-width:1;"/><line style="stroke:#181818;stroke-width:1;" x1="255.8423" x2="265.8423" y1="512.7813" y2="512.7813"/><line style="stroke:#181818;stroke-width:1;" x1="265.8423" x2="265.8423" y1="512.7813" y2="534.7813"/><polygon fill="#181818" points="261.8423,524.7813,265.8423,534.7813,269.8423,524.7813,265.8423,528.7813" style="stroke:#181818;stroke-width:1;"/><line style="stroke:#181818;stroke-width:1;" x1="103.0391" x2="103.0391" y1="568.75" y2="586.75"/><line style="stroke:#181818;stroke-width:1;" x1="103.0391" x2="172.4407" y1="586.75" y2="586.75"/><polygon fill="#181818" points="162.4407,582.75,172.4407,586.75,162.4407,590.75,166.4407,586.75" style="stroke:#181818;stroke-width:1;"/><line style="stroke:#181818;stroke-width:1;" x1="265.8423" x2="265.8423" y1="568.75" y2="586.75"/><line style="stroke:#181818;stroke-width:1;" x1="265.8423" x2="196.4407" y1="586.75" y2="586.75"/><polygon fill="#181818" points="206.4407,582.75,196.4407,586.75,206.4407,590.75,202.4407,586.75" style="stroke:#181818;stroke-width:1;"/><line style="stroke:#181818;stroke-width:1;" x1="184.4407" x2="184.4407" y1="480.7813" y2="500.7813"/><polygon fill="#181818" points="180.4407,490.7813,184.4407,500.7813,188.4407,490.7813,184.4407,494.7813" style="stroke:#181818;stroke-width:1;"/><line style="stroke:#181818;stroke-width:1;" x1="228.1288" x2="184.4407" y1="424.8125" y2="424.8125"/><line style="stroke:#181818;stroke-width:1;" x1="184.4407" x2="184.4407" y1="424.8125" y2="446.8125"/><polygon fill="#181818" points="180.4407,436.8125,184.4407,446.8125,188.4407,436.8125,184.4407,440.8125" style="stroke:#181818;stroke-width:1;"/><line style="stroke:#181818;stroke-width:1;" x1="353.6639" x2="397.3521" y1="424.8125" y2="424.8125"/><line style="stroke:#181818;stroke-width:1;" x1="397.3521" x2="397.3521" y1="424.8125" y2="446.8125"/><polygon fill="#181818" points="393.3521,436.8125,397.3521,446.8125,401.3521,436.8125,397.3521,440.8125" style="stroke:#181818;stroke-width:1;"/><line style="stroke:#181818;stroke-width:1;" x1="184.4407" x2="184.4407" y1="598.75" y2="616.75"/><line style="stroke:#181818;stroke-width:1;" x1="184.4407" x2="278.8964" y1="616.75" y2="616.75"/><polygon fill="#181818" points="268.8964,612.75,278.8964,616.75,268.8964,620.75,272.8964,616.75" style="stroke:#181818;stroke-width:1;"/><line style="stroke:#181818;stroke-width:1;" x1="397.3521" x2="397.3521" y1="480.7813" y2="616.75"/><line style="stroke:#181818;stroke-width:1;" x1="397.3521" x2="302.8964" y1="616.75" y2="616.75"/><polygon fill="#181818" points="312.8964,612.75,302.8964,616.75,312.8964,620.75,308.8964,616.75" style="stroke:#181818;stroke-width:1;"/><line style="stroke:#181818;stroke-width:1;" x1="290.8964" x2="290.8964" y1="392.8125" y2="412.8125"/><polygon fill="#181818" points="286.8964,402.8125,290.8964,412.8125,294.8964,402.8125,290.8964,406.8125" style="stroke:#181818;stroke-width:1;"/><line style="stroke:#181818;stroke-width:1;" x1="358.2663" x2="290.8964" y1="336.8438" y2="336.8438"/><line style="stroke:#181818;stroke-width:1;" x1="290.8964" x2="290.8964" y1="336.8438" y2="358.8438"/><polygon fill="#181818" points="286.8964,348.8438,290.8964,358.8438,294.8964,348.8438,290.8964,352.8438" style="stroke:#181818;stroke-width:1;"/><line style="stroke:#181818;stroke-width:1;" x1="481.5778" x2="548.9478" y1="336.8438" y2="336.8438"/><line style="stroke:#181818;stroke-width:1;" x1="548.9478" x2="548.9478" y1="336.8438" y2="358.8438"/><polygon fill="#181818" points="544.9478,348.8438,548.9478,358.8438,552.9478,348.8438,548.9478,352.8438" style="stroke:#181818;stroke-width:1;"/><line style="stroke:#181818;stroke-width:1;" x1="290.8964" x2="290.8964" y1="628.75" y2="646.75"/><line style="stroke:#181818;stroke-width:1;" x1="290.8964" x2="407.9221" y1="646.75" y2="646.75"/><polygon fill="#181818" points="397.9221,642.75,407.9221,646.75,397.9221,650.75,401.9221,646.75" style="stroke:#181818;stroke-width:1;"/><line style="stroke:#181818;stroke-width:1;" x1="548.9478" x2="548.9478" y1="392.8125" y2="646.75"/><line style="stroke:#181818;stroke-width:1;" x1="548.9478" x2="431.9221" y1="646.75" y2="646.75"/><polygon fill="#181818" points="441.9221,642.75,431.9221,646.75,441.9221,650.75,437.9221,646.75" style="stroke:#181818;stroke-width:1;"/><line style="stroke:#181818;stroke-width:1;" x1="419.9221" x2="419.9221" y1="304.8438" y2="324.8438"/><polygon fill="#181818" points="415.9221,314.8438,419.9221,324.8438,423.9221,314.8438,419.9221,318.8438" style="stroke:#181818;stroke-width:1;"/><line style="stroke:#181818;stroke-width:1;" x1="419.9221" x2="419.9221" y1="658.75" y2="678.75"/><polygon fill="#181818" points="415.9221,668.75,419.9221,678.75,423.9221,668.75,419.9221,672.75" style="stroke:#181818;stroke-width:1;"/><line style="stroke:#181818;stroke-width:1;" x1="419.9221" x2="419.9221" y1="712.7188" y2="732.7188"/><polygon fill="#181818" points="415.9221,722.7188,419.9221,732.7188,423.9221,722.7188,419.9221,726.7188" style="stroke:#181818;stroke-width:1;"/><line style="stroke:#181818;stroke-width:1;" x1="419.9221" x2="419.9221" y1="766.6875" y2="786.6875"/><polygon fill="#181818" points="415.9221,776.6875,419.9221,786.6875,423.9221,776.6875,419.9221,780.6875" style="stroke:#181818;stroke-width:1;"/><?plantuml-src PP91JyCm38Nl_HK-eVR4lHMWeI61WDCc8OxUugOcQH8bAMFyUfokGh3T8ljxByvpKiQOgwfzyQZWanLvK1WPKlOHDNNIUlZA4VSP-eWZfL9PKoQJ64PqKsA4Ef0Fba19VP_PkwPGMr4PTXhOAHRh2MfCYRM3ftNpr-Q07pX8WNketyePCaLrQjura0ToKBzZKm6qAuUM4oV0ADoiX5hZDrqF92y8Fb7n1YXch-JqW0e3M3nYFFCIjqVEamoe3cGjP1vfbfx4wocY37Tx8w98QV1MNHY8nRCLgcTJs4GxrCYI8nqeTZD2DX7KMrPeVZNtaq7tdvA8-dBt1Nu1B-WPs6uCXuK2b92E4b9NBN2xqf5q6L5Xbdt9GlkUzt2rAEPrR7WCSfEX6TfXAcd8FmW_?></g></svg>